<?xml version="1.0" encoding="UTF-8"?>
<svg id="Layer_1" xmlns="http://www.w3.org/2000/svg" version="1.1" viewBox="0 0 700 700">
  <!-- Generator: Adobe Illustrator 29.5.0, SVG Export Plug-In . SVG Version: 2.1.0 Build 137)  -->
  <defs>
    <style>
      .st0 {
        fill: #fff;
      }

      .st1 {
        fill: none;
      }

      .st2 {
        fill: #ae2983;
      }
    </style>
  </defs>
  <path class="st2" d="M664.5,232.3v-22.5c0-6.3-.1-12.6-.3-19-.4-13.8-1.2-27.7-3.6-41.3-2.3-13.7-6.7-26.9-12.9-39.3-12.7-24.9-32.9-45.1-57.8-57.7-12.4-6.3-25.6-10.6-39.3-13-13.6-2.4-27.5-3.2-41.3-3.6-6.3-.2-12.7-.2-19-.3-7.5,0-15,0-22.5,0h-235.5c-7.5,0-15,0-22.5,0-6.3,0-12.6.1-19,.3-13.7.4-27.7,1.2-41.3,3.7-13.7,2.4-26.9,6.7-39.3,13-24.9,12.7-45.1,32.9-57.8,57.7-6.2,12.4-10.6,25.6-12.9,39.3-2.4,13.6-3.3,27.5-3.6,41.2-.2,6.3-.2,12.6-.3,19v280.5c0,6.3.1,12.7.3,19,.4,13.8,1.2,27.7,3.6,41.3,2.3,13.7,6.7,26.9,12.9,39.3,12.7,24.9,32.9,45.1,57.8,57.8,12.4,6.2,25.6,10.6,39.3,12.9,13.6,2.5,27.5,3.3,41.3,3.6,6.3.2,12.6.2,19,.3h280.5c6.3,0,12.7-.1,19-.3,13.8-.4,27.7-1.2,41.3-3.6,13.7-2.3,26.9-6.7,39.3-12.9,24.9-12.7,45.1-32.9,57.8-57.8,6.2-12.4,10.6-25.6,13-39.3,2.4-13.6,3.3-27.5,3.6-41.3.2-6.3.2-12.7.3-19V232.3h0Z"/>
  <path class="st0" d="M480.2,131.6c-1.5.1-15,2.5-16.6,2.9l-187,37.7h0c-4.3.8-8.3,2.6-11.6,5.2-3.6,3-5.5,7.2-6.3,12.1-.3,2.1-.4,4.2-.4,6.3v234c0,5.5-.4,10.8-4.1,15.3s-8.3,5.9-13.6,7l-12.2,2.5c-15.4,3.1-25.5,5.2-34.6,8.8-8.7,3.4-15.2,7.7-20.4,13.1-18.7,20.1-17.6,51.5,2.5,70.2,6.4,5.9,14.2,9.9,22.7,11.6,9.3,1.9,19.2,1.2,33.7-1.7,7.7-1.4,15.1-4.2,21.8-8.1,6.8-4,12.7-9.4,17.2-15.9,4.5-6.5,7.6-13.8,9.1-21.6,1.5-7.6,2.2-15.4,2.1-23.2v-203c0-10.9,3.1-13.7,11.9-15.9,0,0,155.4-31.3,162.6-32.8,10.1-1.9,14.9,1,14.9,11.5v138.6c0,5.5,0,11-3.8,15.6s-8.3,5.9-13.6,7l-12.2,2.5c-15.4,3.1-25.5,5.2-34.6,8.8-8.7,3.4-15.2,7.7-20.4,13.1-18.7,19.4-18.1,50.4,1.3,69.1.4.4.8.7,1.2,1.1,6.4,5.9,14.2,9.9,22.7,11.5,9.3,1.9,19.2,1.2,33.7-1.7,7.7-1.4,15.1-4.1,21.8-8,6.8-4,12.7-9.4,17.2-15.9,4.5-6.5,7.6-13.8,9.2-21.6,1.7-8,1.8-15.2,1.8-23.2V148.1c0-10.8-5.6-17.4-15.8-16.5Z"/>
  <rect class="st1" y="0" width="700" height="700"/>
</svg>