<?xml version="1.0" encoding="UTF-8"?>
<svg id="Layer_1" xmlns="http://www.w3.org/2000/svg" version="1.1" viewBox="0 0 50 50">
  <!-- Generator: Adobe Illustrator 29.5.0, SVG Export Plug-In . SVG Version: 2.1.0 Build 137)  -->
  <defs>
    <style>
      .st0 {
        fill: #ae2983;
      }
    </style>
  </defs>
  <path class="st0" d="M44.9,14.5c-.4-2.2-2.3-3.8-4.5-4.3-3.3-.7-9.4-1.2-16-1.2s-12.8.5-16.1,1.2c-2.2.5-4.1,2-4.5,4.3-.4,2.5-.8,6-.8,10.5s.4,8,.9,10.5c.4,2.2,2.3,3.8,4.5,4.3,3.5.7,9.5,1.2,16.1,1.2s12.6-.5,16.1-1.2c2.2-.5,4.1-2,4.5-4.3.4-2.5.9-6.1,1-10.5-.2-4.5-.7-8-1.2-10.5ZM19,32v-14l12.2,7-12.2,7Z"/>
</svg>