<?xml version="1.0" encoding="UTF-8"?>
<svg id="Layer_1" xmlns="http://www.w3.org/2000/svg" version="1.1" viewBox="0 0 50 50">
  <!-- Generator: Adobe Illustrator 29.5.0, SVG Export Plug-In . SVG Version: 2.1.0 Build 137)  -->
  <defs>
    <style>
      .st0 {
        fill: #ae2983;
      }
    </style>
  </defs>
  <path class="st0" d="M41,4H9c-2.8,0-5,2.2-5,5v32c0,2.8,2.2,5,5,5h32c2.8,0,5-2.2,5-5V9c0-2.8-2.2-5-5-5ZM16.1,19.1c.5-.6,1.3-1,2-1.1.1.8-.2,1.5-.6,2-.5.6-1.2,1-2,1-.2-.7.1-1.4.6-1.9ZM20.4,29.1c-.6.8-1.4,1.9-2.3,1.9s-1.1-.6-2.2-.5c-1.2,0-1.4.6-2.3.5-1,0-1.7-.9-2.2-1.8-1.5-2.3-1.7-5.1-.7-6.6.7-1,1.7-1.6,2.7-1.6s1.7.6,2.5.6,1.3-.6,2.5-.6,1.8.5,2.5,1.3c-2.2,1.2-1.8,4.3.4,5.2-.4.7-.6,1-.9,1.6ZM29.4,22.4h-2.6v5.2c0,1.2.3,1.9,1.4,1.9s.8,0,1-.1v1.4c-.2.1-.8.2-1.5.2s-1.5-.3-2-.8c-.5-.6-.7-1.4-.7-2.6v-5.2h-1.5v-1.4h1.5v-2.5l1.8-.5v3h2.6v1.4ZM36.1,31h-1.7l-3.8-10h1.9l2,5.6c.3.9.6,1.7.8,2.6h0c.2-.8.5-1.6.8-2.6l1.9-5.6h1.9l-3.9,10Z"/>
</svg>