<?xml version="1.0" encoding="UTF-8"?>
<svg id="Layer_1" xmlns="http://www.w3.org/2000/svg" version="1.1" viewBox="0 0 512 512">
  <!-- Generator: Adobe Illustrator 29.5.0, SVG Export Plug-In . SVG Version: 2.1.0 Build 137)  -->
  <defs>
    <style>
      .st0 {
        fill: #ae2983;
      }
    </style>
  </defs>
  <path class="st0" d="M0,256C0,114.6,114.6,0,256,0s256,114.6,256,256-114.6,256-256,256S0,397.4,0,256ZM256,288c-17.7,0-32-14.3-32-32s14.3-32,32-32,32,14.3,32,32-14.3,32-32,32ZM160,256c0,53,43,96,96,96s96-43,96-96-43-96-96-96-96,43-96,96ZM96,240c0-35,17.5-71.1,45.2-98.8s63.8-45.2,98.8-45.2,16-7.2,16-16-7.2-16-16-16c-45.4,0-89.2,22.3-121.5,54.5s-54.5,76.1-54.5,121.5,7.2,16,16,16,16-7.2,16-16Z"/>
</svg>