<?xml version="1.0" encoding="UTF-8"?>
<svg id="Layer_1" xmlns="http://www.w3.org/2000/svg" version="1.1" viewBox="0 0 50 50">
  <!-- Generator: Adobe Illustrator 29.5.0, SVG Export Plug-In . SVG Version: 2.1.0 Build 137)  -->
  <defs>
    <style>
      .st0 {
        fill: #ae2983;
      }
    </style>
  </defs>
  <path class="st0" d="M13,4c-5,0-9,4-9,9v24c0,5,4,9,9,9h24c5,0,9-4,9-9V13c0-5-4-9-9-9H13ZM22.9,11.8c.1,0,.2,0,.3,0,.4.1.6.4.5.9,0,.4-.3.6-.7.7-.2,0-.3,0-.5,0-.4,0-.7-.4-.7-.9,0-.5.4-.8.9-.8ZM14.8,14.1c.2,0,.4,0,.6,0,.7.2,1.1.6,1.4,1.2.1.3.2.7.3,1,0,.6,0,1.1-.2,1.7-.1.4-.4.8-.7,1.1-.5.4-1,.6-1.6.5-.4,0-.9-.2-1.2-.5,0,0,0,0,0,.1v2q0,.4-.4.4c-.2,0-.5,0-.7,0-.2,0-.3,0-.4-.2,0-2.4,0-4.8,0-7.2.1-.1.3-.1.4-.1.2,0,.4,0,.6,0s.3,0,.3.2c0,0,0,.1,0,.2,0,0,0,0,0,0,0,0,.1,0,.1-.1.5-.3,1-.5,1.5-.5ZM28.3,14.1c.2,0,.3,0,.5,0,.3,0,.6.3.8.5,0,0,0,0,0,0,0,0,0,0,0,0,.2-.1.3-.2.5-.3.5-.2,1-.4,1.6-.3.4,0,.7.1,1,.4.3.3.4.6.4,1,0,0,0,.1,0,.2v3.6c0,.3,0,.3-.3.3h-.8c0,0-.1,0-.2,0,0,0-.2,0-.2-.2,0,0,0-.2,0-.2v-3.2c0-.1,0-.3,0-.4,0-.2-.2-.4-.5-.4-.4,0-.8,0-1.2.2,0,0,0,0,0,.1v3.6c0,0,0,.1,0,.2,0,0,0,.2-.2.2-.1,0-.2,0-.3,0h-.7c-.3,0-.3,0-.3-.3v-3.2c0-.1,0-.2,0-.4,0-.2-.2-.4-.5-.4-.4,0-.8,0-1.2.2,0,0,0,0,0,.1v3.7c0,.3,0,.3-.3.3h-.9c-.2,0-.3,0-.3-.3v-4.8h0c0,0,0-.1,0-.2,0,0,.1-.1.2-.1h.9c.1,0,.2,0,.2.2,0,0,0,.2,0,.3,0,0,.1,0,.2,0,.4-.2.8-.4,1.2-.5.2,0,.3,0,.5,0ZM37,14.1c.2,0,.5,0,.7.1.9.3,1.3,1.2,1,2.1,0,.3-.3.6-.6.8-.3.1-.6.2-.9.3-.5,0-1,0-1.6,0,0,0-.1,0-.2,0,0,.6.3,1.1.9,1.2.4,0,.9,0,1.3,0,.2,0,.4,0,.6-.1s.3,0,.3.2,0,.3,0,.5c0,.2,0,.3-.2.3-.3.1-.5.2-.8.2-.5,0-1,.1-1.6,0-.9-.2-1.5-.7-1.8-1.6-.2-.7-.2-1.4,0-2.1.3-1,1-1.6,2.1-1.8.2,0,.5,0,.7,0ZM21.2,14.2c.2,0,.2,0,.3.2,0,.2,0,.5,0,.7,0,0,0,.2,0,.3,0,.1,0,.2-.2.2,0,0-.2,0-.3,0-.5,0-.9,0-1.3.2,0,0,0,.1,0,.2v3.3c0,0,0,.1,0,.2,0,0,0,.2-.2.2,0,0-.1,0-.2,0h-.9s-.1,0-.2,0c0,0-.2,0-.2-.2,0,0,0-.1,0-.2v-4.7c0-.3,0-.3.3-.3h.7c.2,0,.3,0,.3.2s0,.3.1.5c0,0,0,0,.1,0,.1-.1.3-.2.4-.4.4-.3.8-.4,1.2-.4ZM22.4,14.2c.4,0,.7,0,1.1,0,.2,0,.2,0,.2.2,0,0,0,.1,0,.2v4.6c0,0,0,.2,0,.2,0,0,0,.2-.2.2,0,0,0,0-.1,0h-1s0,0,0,0c0,0-.2,0-.2-.2,0,0,0-.1,0-.2,0-.8,0-1.5,0-2.3v-2.4c0-.2,0-.2.2-.2ZM36.7,15.2c-.4,0-.9.1-1.1.6,0,.2-.1.3-.1.5s0,.1,0,.1c.3,0,.5,0,.8,0,.2,0,.3,0,.4,0,.2,0,.4-.2.5-.4,0-.1,0-.2,0-.4,0-.2-.1-.4-.3-.4-.1,0-.2,0-.4,0ZM14.3,15.3c-.3,0-.6,0-.9.2,0,0-.1.1-.1.2,0,.4,0,.8,0,1.2v1.2c0,0,0,.2.1.2.3.2.7.2,1,.2.2,0,.5,0,.6-.2.2-.1.3-.3.3-.6.1-.4.1-.9,0-1.3,0-.2,0-.5-.2-.7-.1-.3-.4-.5-.7-.5-.1,0-.2,0-.3,0ZM18.5,21.9c.1,0,.3,0,.4,0,.3.1.5.4.5.7,0,.7-.4,1-1,1,0,0-.2,0-.2,0-.5-.1-.7-.5-.6-1,0-.4.4-.7.8-.7,0,0,.1,0,.2,0ZM24.7,22h1c.2,0,.3,0,.3.3v7.8c0,.2,0,.3-.3.3-.3,0-.5,0-.8,0h-.2c-.1,0-.2,0-.3-.2,0,0,0-.2,0-.3,0,0,0,0-.1,0-.7.5-1.4.6-2.2.4-.6-.2-1-.6-1.3-1.1-.2-.5-.4-1-.4-1.6,0-.6,0-1.2.3-1.7.2-.6.6-1,1.2-1.3.8-.4,1.6-.3,2.4.2,0,0,0,0,.2,0,0,0,0-.1,0-.2v-2.4c0-.3,0-.3.3-.3ZM36,24.4c.2,0,.5,0,.7,0,1,.3,1.6.9,1.9,1.9,0,.1,0,.3,0,.4,0,0,0,0,0,0h0c0,0,0,0,0,0,0,0,0,0,0,0h0c0,0,0,.1,0,.2h0s0,0,0,0v.8h0s0,0,0,0h0s0,0,0,0h0c0,.1,0,.1,0,.1-.1,1-.7,2.2-2.3,2.4-.5,0-.9,0-1.4,0-.8-.2-1.4-.7-1.7-1.5-.3-.9-.3-1.9,0-2.8.3-.9,1.1-1.5,2.1-1.6.2,0,.5,0,.7,0ZM29.9,24.4c.4,0,.7,0,1.1.1.6.2,1.1.6,1.2,1.3,0,.3,0,.5,0,.8,0,.4-.4.8-.7,1-.4.2-.8.3-1.2.3-.5,0-1,0-1.5,0,0,0,0,0-.1,0,0,.2,0,.3,0,.5.1.5.5.8,1,.9.5,0,1,0,1.5,0,.2,0,.3,0,.5-.1.2,0,.3,0,.3.2v.5c0,.2,0,.3-.3.4-.5.2-1,.3-1.6.3-.4,0-.7,0-1.1-.1-.8-.2-1.4-.7-1.7-1.6-.3-.8-.3-1.7,0-2.5.4-1.2,1.3-1.9,2.6-1.9ZM11.4,24.6c.4,0,.8,0,1.3,0s.3.1.3.3c0,.3.2.6.2.8.3,1,.6,2.1.9,3.1,0,0,0,0,0,0,0-.1,0-.3.1-.4.3-1.1.7-2.3,1-3.4h0c0-.3.2-.3.3-.3h1.1c.3,0,.3,0,.2.3l-.4,1.2c-.5,1.3-1,2.6-1.5,3.9,0,0,0,0,0,.1,0,.2-.2.3-.4.2-.3,0-.6,0-1,0-.2,0-.4,0-.4-.3-.2-.5-.4-1-.6-1.5-.4-1.2-.9-2.3-1.3-3.5,0,0,0-.2,0-.3,0-.1,0-.2.2-.2ZM18,24.6h1.1c.2,0,.3,0,.3.3v5.2c0,.1,0,.2-.2.2-.4,0-.8,0-1.2,0-.1,0-.2,0-.2-.2,0,0,0,0,0-.1v-5.1c0-.2,0-.3.3-.3ZM29.7,25.6c-.3,0-.6.2-.8.4-.2.2-.2.5-.3.8,0,0,0,0,0,.1.3,0,.6,0,.9,0,.2,0,.3,0,.5,0,.3,0,.5-.2.6-.5,0-.4,0-.8-.5-.9,0,0,0,0-.1,0-.1,0-.2,0-.3,0ZM23.1,25.6c-.3,0-.6.2-.8.5,0,.1-.1.2-.1.4-.1.5-.1.9,0,1.4,0,.3,0,.5.2.7.2.3.5.5.8.5.4,0,.8,0,1.2-.2,0,0,.1-.1.1-.2v-1.3c0-.5,0-.9,0-1.3,0,0,0-.2-.1-.2-.4-.2-.7-.2-1.1-.2ZM35.7,25.7c-.3,0-.6.2-.8.5,0,.1-.2.3-.2.5-.1.4,0,.9,0,1.3,0,.3,0,.5.2.7.1.3.4.5.7.6.1,0,.3,0,.4,0,.3,0,.5-.2.7-.4,0-.1.2-.3.2-.4,0-.3.1-.6.1-.9,0-.1,0-.3,0-.4,0-.3,0-.6-.2-.8-.1-.3-.4-.5-.7-.5-.1,0-.3,0-.4,0ZM35.7,32.7c.4,0,.8,0,1.2.1.1,0,.2,0,.3.1.1,0,.2.2.2.3,0,.2,0,.3,0,.5,0,1-.4,2-.9,2.9-.2.3-.4.6-.7.9,0,0-.1,0-.2.1-.1,0-.2,0-.2-.1,0,0,0-.1,0-.2.2-.6.4-1.1.6-1.7,0-.3.2-.6.2-1,0-.1,0-.2,0-.4,0-.2-.1-.4-.3-.4-.2,0-.4,0-.6-.1-.6,0-1.1,0-1.6,0h-.7c0,0-.1,0-.2,0s0-.1,0-.2c0,0,.1-.1.2-.2.4-.3.9-.5,1.5-.6.4,0,.8-.1,1.2-.1ZM12.7,33s0,0,.1,0c0,0,.1,0,.2,0,2.1,1.3,4.5,2.3,7,2.9.8.2,1.7.3,2.5.4,1.2.2,2.4.2,3.6.2.7,0,1.3,0,1.9-.2,1.5-.2,3-.5,4.4-1,.8-.3,1.5-.5,2.2-.9.1,0,.2,0,.4,0,.2,0,.3.3.3.5,0,0,0,0,0,0,0,0-.1.2-.2.2-.7.5-1.4,1-2.2,1.4-1.5.7-3.1,1.3-4.7,1.6-.9.2-1.9.3-2.8.3-.2,0-.5,0-.7,0-.3,0-.7,0-1,0-.9,0-1.7-.2-2.6-.4-2.9-.7-5.5-2.1-7.8-4-.2-.2-.4-.4-.6-.6,0,0,0-.1-.1-.2,0,0,0-.2,0-.2,0,0,0,0,.1,0Z"/>
</svg>