<?xml version="1.0" encoding="UTF-8"?>
<svg id="Layer_1" xmlns="http://www.w3.org/2000/svg" version="1.1" viewBox="0 0 24 24">
  <!-- Generator: Adobe Illustrator 29.5.0, SVG Export Plug-In . SVG Version: 2.1.0 Build 137)  -->
  <defs>
    <style>
      .st0 {
        fill: #ae2983;
      }
    </style>
  </defs>
  <path class="st0" d="M12,0C5.4,0,0,5.4,0,12s5.4,12,12,12,12-5.4,12-12S18.7,0,12,0ZM17.5,17.3c-.2.4-.7.5-1,.2-2.8-1.7-6.4-2.1-10.6-1.1-.4.1-.8-.2-.9-.5-.1-.4.2-.8.5-.9,4.6-1,8.5-.6,11.6,1.3.4.2.5.7.3,1ZM19,14c-.3.4-.8.6-1.3.3-3.2-2-8.2-2.6-11.9-1.4-.5.1-1-.1-1.1-.6s.1-1,.6-1.1c4.4-1.3,9.8-.7,13.5,1.6.4.2.5.8.2,1.2ZM19.1,10.7c-3.8-2.3-10.3-2.5-13.9-1.4-.6.2-1.2-.2-1.4-.7-.2-.6.2-1.2.7-1.4,4.3-1.3,11.3-1,15.7,1.6.5.3.7,1,.4,1.6-.3.4-1,.6-1.6.3Z"/>
</svg>